<?xml version="1.0" encoding="UTF-8"?>
<svg width="24" height="24" viewBox="0 0 24 24" fill="none" xmlns="http://www.w3.org/2000/svg">
    <path d="M12 2C6.48 2 2 4.02 2 6.5v11C2 19.98 6.48 22 12 22s10-2.02 10-4.5v-11C22 4.02 17.52 2 12 2zm0 18c-4.42 0-8-1.79-8-4v-1.17c1.32.95 4.02 2.17 8 2.17s6.68-1.22 8-2.17V16c0 2.21-3.58 4-8 4zm0-6c-4.42 0-8-1.79-8-4V8.83c1.32.95 4.02 2.17 8 2.17s6.68-1.22 8-2.17V10c0 2.21-3.58 4-8 4zm0-6c-4.42 0-8-1.79-8-4s3.58-4 8-4 8 1.79 8 4-3.58 4-8 4z" fill="#FF6B2C"/>
</svg> 