<?xml version="1.0" encoding="UTF-8"?>
<svg width="120" height="30" viewBox="0 0 120 30" fill="none" xmlns="http://www.w3.org/2000/svg">
  <path d="M15 7.5C11.25 7.5 7.5 11.25 7.5 15C7.5 18.75 11.25 22.5 15 22.5C18.75 22.5 22.5 18.75 22.5 15C22.5 11.25 18.75 7.5 15 7.5ZM15 20C12.525 20 10 17.475 10 15C10 12.525 12.525 10 15 10C17.475 10 20 12.525 20 15C20 17.475 17.475 20 15 20Z" fill="#002B7F"/>
  <path d="M35 15L40 7.5H43L37 15L43 22.5H40L35 15Z" fill="#002B7F"/>
  <path d="M45 7.5H48V22.5H45V7.5Z" fill="#002B7F"/>
  <path d="M55 7.5H58V20H65V22.5H55V7.5Z" fill="#002B7F"/>
  <path d="M70 7.5H73V20H80V22.5H70V7.5Z" fill="#002B7F"/>
  <path d="M85 7.5H95V10H88V13.75H94V16.25H88V20H95V22.5H85V7.5Z" fill="#002B7F"/>
  <path d="M100 7.5H103V20H110V22.5H100V7.5Z" fill="#002B7F"/>
  <path d="M115 7.5H118V22.5H115V7.5Z" fill="#002B7F"/>
</svg> 